<svg xmlns="http://www.w3.org/2000/svg" version="1.1" xmlns:xlink="http://www.w3.org/1999/xlink" xmlns:svgjs="http://svgjs.dev/svgjs" width="2000" height="1500" viewBox="0 0 2000 1500"><rect width="2000" height="1500" fill="#ffffff"></rect><g transform="matrix(0.75,0,0,0.75,249.090909090909,599.1233156088584)"><svg viewBox="0 0 396 80" data-background-color="#ffffff" preserveAspectRatio="xMidYMid meet" height="404" width="2000" xmlns="http://www.w3.org/2000/svg" xmlns:xlink="http://www.w3.org/1999/xlink"><g id="tight-bounds" transform="matrix(1,0,0,1,0.2400000000000091,-0.16457177791642152)"><svg viewBox="0 0 395.52 80.32914355583281" height="80.32914355583281" width="395.52"><g><svg viewBox="0 0 395.52 80.32914355583281" height="80.32914355583281" width="395.52"><g><svg viewBox="0 0 395.52 80.32914355583281" height="80.32914355583281" width="395.52"><g><svg viewBox="0 0 395.52 80.32914355583281" height="80.32914355583281" width="395.52"><g><svg viewBox="0 0 395.52 80.32914355583281" height="80.32914355583281" width="395.52"><rect width="395.52" height="80.32914355583281" x="0" y="0" opacity="1" fill="#5865f2" data-fill-palette-color="tertiary"></rect><g transform="matrix(1,0,0,1,23.607599999999998,23.6076)"><svg width="348.3048" viewBox="3.5 -37.599998474121094 400.7200012207031 38.099998474121094" height="33.11394355583281" data-palette-color="#ffffff"><path d="M33.85-25.55L33.85-25.55Q33.85-21.85 32.1-19.33 30.35-16.8 27.33-15.5 24.3-14.2 20.3-14.2L20.3-14.2 12.8-14.2Q12.25-14.2 12.25-13.65L12.25-13.65 12.25-1.15Q12.25 0 10.95 0L10.95 0 4.55 0Q3.95 0 3.73-0.25 3.5-0.5 3.5-1L3.5-1 3.5-36.15Q3.5-37.1 4.3-37.1L4.3-37.1 19.3-37.1Q23.3-37.1 26.63-35.85 29.95-34.6 31.9-32.05 33.85-29.5 33.85-25.55L33.85-25.55ZM24.85-25.7L24.85-25.7Q24.85-27.45 24.1-28.58 23.35-29.7 21.95-30.25 20.55-30.8 18.75-30.8L18.75-30.8 13.2-30.8Q12.25-30.8 12.25-29.95L12.25-29.95 12.25-21.4Q12.25-20.45 12.95-20.45L12.95-20.45 19.1-20.45Q21.75-20.45 23.3-21.85 24.85-23.25 24.85-25.7L24.85-25.7ZM39.25-36.15L39.25-36.15Q39.25-37.1 40.05-37.1L40.05-37.1 65.25-37.1Q66-37.1 66-36.25L66-36.25 65.95-31.75Q65.95-30.7 64.9-30.7L64.9-30.7 48.95-30.7Q48-30.7 48-29.9L48-29.9 48-22.65Q48-21.8 48.75-21.8L48.75-21.8 59.35-21.8Q60.2-21.8 60.2-21L60.2-21 60.2-16.2Q60.2-15.9 60.02-15.7 59.85-15.5 59.4-15.5L59.4-15.5 48.7-15.5Q48-15.5 48-14.9L48-14.9 48-7.05Q48-6.4 48.55-6.4L48.55-6.4 65.65-6.4Q66.55-6.4 66.55-5.65L66.55-5.65 66.55-0.9Q66.55-0.5 66.32-0.25 66.1 0 65.55 0L65.55 0 40.35 0Q39.25 0 39.25-1.05L39.25-1.05 39.25-36.15ZM73.05-37.1L73.05-37.1Q73.95-37.1 75.47-37.1 77-37.1 78.67-37.1 80.35-37.1 81.85-37.1 83.35-37.1 84.2-37.05L84.2-37.05Q90.95-36.9 95.3-34.6 99.65-32.3 101.72-28.28 103.8-24.25 103.8-18.7L103.8-18.7Q103.8-13 101.62-8.78 99.45-4.55 95.02-2.27 90.6 0 83.95 0L83.95 0 73.1 0Q71.95 0 71.95-1.2L71.95-1.2 71.95-36.05Q71.95-36.65 72.2-36.88 72.45-37.1 73.05-37.1L73.05-37.1ZM81.2-30.9L81.2-30.9Q80.7-30.9 80.7-30.2L80.7-30.2 80.7-6.85Q80.7-6.15 81.35-6.15L81.35-6.15 82.3-6.15Q86.4-6.15 89.15-7.38 91.9-8.6 93.27-11.35 94.65-14.1 94.65-18.65L94.65-18.65Q94.65-23.05 93.37-25.73 92.1-28.4 89.47-29.65 86.85-30.9 82.8-30.9L82.8-30.9 81.2-30.9ZM139.59-1.35L139.59-1.35Q139.79-0.8 139.57-0.4 139.34 0 138.84 0L138.84 0 131.49 0Q130.64 0 130.39-0.9L130.39-0.9 124.99-14.9Q124.69-15.6 123.59-15.6L123.59-15.6 118.84-15.6Q118.49-15.6 118.37-15.4 118.24-15.2 118.24-15.05L118.24-15.05 118.24-1.2Q118.24 0 116.89 0L116.89 0 110.54 0Q109.94 0 109.72-0.25 109.49-0.5 109.49-1L109.49-1 109.49-36.15Q109.49-37.1 110.29-37.1L110.29-37.1 125.89-37.1Q132.59-37.1 136.32-34.45 140.04-31.8 140.04-26.9L140.04-26.9Q140.04-24.35 139.09-22.35 138.14-20.35 136.59-19.03 135.04-17.7 133.19-17.05L133.19-17.05Q132.74-16.9 132.99-16.3L132.99-16.3 139.59-1.35ZM125.09-21.5L125.09-21.5Q127.94-21.5 129.47-22.73 130.99-23.95 130.99-26.3L130.99-26.3Q130.99-28.75 129.44-30 127.89-31.25 125.34-31.25L125.34-31.25 119.19-31.25Q118.24-31.25 118.24-30.4L118.24-30.4 118.24-22.35Q118.24-21.5 118.94-21.5L118.94-21.5 125.09-21.5ZM160.99 0.5L160.99 0.5Q155.69 0.5 151.84-1.78 147.99-4.05 145.91-8.3 143.84-12.55 143.84-18.4L143.84-18.4Q143.84-24.35 145.97-28.65 148.09-32.95 151.94-35.27 155.79-37.6 160.99-37.6L160.99-37.6Q166.19-37.6 170.02-35.27 173.84-32.95 175.94-28.68 178.04-24.4 178.04-18.45L178.04-18.45Q178.04-12.6 175.97-8.35 173.89-4.1 170.04-1.8 166.19 0.5 160.99 0.5L160.99 0.5ZM160.99-5.65L160.99-5.65Q165.09-5.65 166.99-8.63 168.89-11.6 168.89-18.35L168.89-18.35Q168.89-25.25 166.97-28.38 165.04-31.5 160.99-31.5L160.99-31.5Q156.89-31.5 154.94-28.35 152.99-25.2 152.99-18.35L152.99-18.35Q152.99-11.65 154.91-8.65 156.84-5.65 160.99-5.65L160.99-5.65ZM194.09-36.15L194.09-36.15Q194.09-37.1 194.89-37.1L194.89-37.1 219.69-37.1Q220.44-37.1 220.44-36.25L220.44-36.25 220.39-31.75Q220.39-30.7 219.39-30.7L219.39-30.7 203.79-30.7Q202.84-30.7 202.84-29.9L202.84-29.9 202.84-22.15Q202.84-21.35 203.59-21.35L203.59-21.35 214.44-21.35Q215.24-21.35 215.24-20.55L215.24-20.55 215.24-15.8Q215.24-15.1 214.49-15.1L214.49-15.1 203.54-15.1Q202.84-15.1 202.84-14.45L202.84-14.45 202.84-1.15Q202.84 0 201.54 0L201.54 0 195.19 0Q194.54 0 194.31-0.25 194.09-0.5 194.09-1.05L194.09-1.05 194.09-36.15ZM225.63-36.15L225.63-36.15Q225.63-37.1 226.43-37.1L226.43-37.1 251.63-37.1Q252.38-37.1 252.38-36.25L252.38-36.25 252.33-31.75Q252.33-30.7 251.28-30.7L251.28-30.7 235.33-30.7Q234.38-30.7 234.38-29.9L234.38-29.9 234.38-22.65Q234.38-21.8 235.13-21.8L235.13-21.8 245.73-21.8Q246.58-21.8 246.58-21L246.58-21 246.58-16.2Q246.58-15.9 246.41-15.7 246.23-15.5 245.78-15.5L245.78-15.5 235.08-15.5Q234.38-15.5 234.38-14.9L234.38-14.9 234.38-7.05Q234.38-6.4 234.93-6.4L234.93-6.4 252.03-6.4Q252.93-6.4 252.93-5.65L252.93-5.65 252.93-0.9Q252.93-0.5 252.71-0.25 252.48 0 251.93 0L251.93 0 226.73 0Q225.63 0 225.63-1.05L225.63-1.05 225.63-36.15ZM258.33-36.15L258.33-36.15Q258.33-37.1 259.13-37.1L259.13-37.1 266.28-37.1Q267.08-37.1 267.08-36.2L267.08-36.2 267.08-7.05Q267.08-6.4 267.63-6.4L267.63-6.4 283.58-6.4Q284.48-6.4 284.48-5.65L284.48-5.65 284.48-0.9Q284.48-0.5 284.26-0.25 284.03 0 283.53 0L283.53 0 259.43 0Q258.78 0 258.56-0.25 258.33-0.5 258.33-1.05L258.33-1.05 258.33-36.15ZM290.48-37.1L297.63-37.1Q298.43-37.1 298.43-36.2L298.43-36.2 298.43-1.2Q298.43-0.55 298.1-0.28 297.78 0 297.08 0L297.08 0 290.78 0Q290.13 0 289.9-0.25 289.68-0.5 289.68-1.05L289.68-1.05 289.68-36.15Q289.68-37.1 290.48-37.1L290.48-37.1ZM335.78-25.55L335.78-25.55Q335.78-21.85 334.03-19.33 332.28-16.8 329.25-15.5 326.23-14.2 322.23-14.2L322.23-14.2 314.73-14.2Q314.18-14.2 314.18-13.65L314.18-13.65 314.18-1.15Q314.18 0 312.88 0L312.88 0 306.48 0Q305.88 0 305.65-0.25 305.43-0.5 305.43-1L305.43-1 305.43-36.15Q305.43-37.1 306.23-37.1L306.23-37.1 321.23-37.1Q325.23-37.1 328.55-35.85 331.88-34.6 333.83-32.05 335.78-29.5 335.78-25.55L335.78-25.55ZM326.78-25.7L326.78-25.7Q326.78-27.45 326.03-28.58 325.28-29.7 323.88-30.25 322.48-30.8 320.68-30.8L320.68-30.8 315.13-30.8Q314.18-30.8 314.18-29.95L314.18-29.95 314.18-21.4Q314.18-20.45 314.88-20.45L314.88-20.45 321.03-20.45Q323.68-20.45 325.23-21.85 326.78-23.25 326.78-25.7L326.78-25.7ZM371.52-25.55L371.52-25.55Q371.52-21.85 369.77-19.33 368.02-16.8 365-15.5 361.97-14.2 357.97-14.2L357.97-14.2 350.47-14.2Q349.92-14.2 349.92-13.65L349.92-13.65 349.92-1.15Q349.92 0 348.62 0L348.62 0 342.22 0Q341.62 0 341.4-0.25 341.17-0.5 341.17-1L341.17-1 341.17-36.15Q341.17-37.1 341.97-37.1L341.97-37.1 356.97-37.1Q360.97-37.1 364.3-35.85 367.62-34.6 369.57-32.05 371.52-29.5 371.52-25.55L371.52-25.55ZM362.52-25.7L362.52-25.7Q362.52-27.45 361.77-28.58 361.02-29.7 359.62-30.25 358.22-30.8 356.42-30.8L356.42-30.8 350.87-30.8Q349.92-30.8 349.92-29.95L349.92-29.95 349.92-21.4Q349.92-20.45 350.62-20.45L350.62-20.45 356.77-20.45Q359.42-20.45 360.97-21.85 362.52-23.25 362.52-25.7L362.52-25.7ZM376.92-36.15L376.92-36.15Q376.92-37.1 377.72-37.1L377.72-37.1 402.92-37.1Q403.67-37.1 403.67-36.25L403.67-36.25 403.62-31.75Q403.62-30.7 402.57-30.7L402.57-30.7 386.62-30.7Q385.67-30.7 385.67-29.9L385.67-29.9 385.67-22.65Q385.67-21.8 386.42-21.8L386.42-21.8 397.02-21.8Q397.87-21.8 397.87-21L397.87-21 397.87-16.2Q397.87-15.9 397.7-15.7 397.52-15.5 397.07-15.5L397.07-15.5 386.37-15.5Q385.67-15.5 385.67-14.9L385.67-14.9 385.67-7.05Q385.67-6.4 386.22-6.4L386.22-6.4 403.32-6.4Q404.22-6.4 404.22-5.65L404.22-5.65 404.22-0.9Q404.22-0.5 404-0.25 403.77 0 403.22 0L403.22 0 378.02 0Q376.92 0 376.92-1.05L376.92-1.05 376.92-36.15Z" opacity="1" transform="matrix(1,0,0,1,0,0)" fill="#ffffff" class="undefined-text-0" data-fill-palette-color="quaternary" id="text-0"></path></svg></g></svg></g></svg></g></svg></g></svg></g><defs></defs></svg><rect width="395.52" height="80.32914355583281" fill="none" stroke="none" visibility="hidden"></rect></g></svg></g></svg>